0
SECTION
2
HEADER
9
$INSUNITS
70
4
9
$ACADVER
1
AC1014
9
$HANDSEED
5
FFFF
0
ENDSEC
0
SECTION
2
TABLES
0
TABLE
2
VPORT
5
8
100
AcDbSymbolTable
0
ENDTAB
0
TABLE
2
LTYPE
5
5
100
AcDbSymbolTable
0
LTYPE
5
14
100
AcDbSymbolTableRecord
100
AcDbLinetypeTableRecord
2
BYBLOCK
70
0
0
LTYPE
5
15
100
AcDbSymbolTableRecord
100
AcDbLinetypeTableRecord
2
BYLAYER
70
0
0
LTYPE
5
16
100
AcDbSymbolTableRecord
100
AcDbLinetypeTableRecord
2
DASHED
70
0
3
Dashed __ __ __ __ __ __ __ __ __ __ __ __ __ _
72
65
73
2
40
0.75
49
0.5
74
0
49
-0.25
74
0
0
ENDTAB
0
TABLE
2
LAYER
5
2
100
AcDbSymbolTable
70
2
0
LAYER
5
50
100
AcDbSymbolTableRecord
100
AcDbLayerTableRecord
2
0
70
0
62
7
6
CONTINUOUS
0
ENDTAB
0
TABLE
2
STYLE
5
3
100
AcDbSymbolTable
70
1
0
STYLE
5
11
100
AcDbSymbolTableRecord
100
AcDbTextStyleTableRecord
2
STANDARD
70
0
0
ENDTAB
0
TABLE
2
VIEW
5
6
100
AcDbSymbolTable
70
0
0
ENDTAB
0
TABLE
2
UCS
5
7
100
AcDbSymbolTable
70
0
0
ENDTAB
0
TABLE
2
APPID
5
9
100
AcDbSymbolTable
70
2
0
APPID
5
12
100
AcDbSymbolTableRecord
100
AcDbRegAppTableRecord
2
ACAD
70
0
0
ENDTAB
0
TABLE
2
DIMSTYLE
5
A
100
AcDbSymbolTable
70
1
0
ENDTAB
0
TABLE
2
BLOCK_RECORD
5
1
100
AcDbSymbolTable
70
1
0
BLOCK_RECORD
5
1F
100
AcDbSymbolTableRecord
100
AcDbBlockTableRecord
2
*MODEL_SPACE
0
BLOCK_RECORD
5
1B
100
AcDbSymbolTableRecord
100
AcDbBlockTableRecord
2
*PAPER_SPACE
0
ENDTAB
0
ENDSEC
0
SECTION
2
BLOCKS
0
BLOCK
5
20
100
AcDbEntity
100
AcDbBlockBegin
2
*MODEL_SPACE
0
ENDBLK
5
21
100
AcDbEntity
100
AcDbBlockEnd
0
BLOCK
5
1C
100
AcDbEntity
100
AcDbBlockBegin
2
*PAPER_SPACE
0
ENDBLK
5
1D
100
AcDbEntity
100
AcDbBlockEnd
0
ENDSEC
0
SECTION
2
ENTITIES
0
LWPOLYLINE
5
100
100
AcDbEntity
8
0
100
AcDbPolyline
90
41
70
1
43
0.0
10
636.90243629963197
20
156.54662911726172
10
636.90243629963197
20
161.00000252215602
42
0.30901779218167647
10
636.39318924351028
20
161.74529623984469
10
621.06330218654898
20
168.78263218159213
42
0.63908138697723893
10
617.61321345723513
20
165.83537174291359
10
618.71342220603378
20
161.91326708128798
42
-0.1793410570340965
10
618.60036739854365
20
160.52785134769329
10
612.70255874681573
20
147.87995986219065
42
-0.17934105701317604
10
611.71393895325241
20
146.90282678643248
10
608.00223191704072
20
145.22455529825362
42
0.55504238629700786
10
607.44064861144511
20
141.01867228916586
10
616.34682739535549
20
133.66625561934066
42
0.1393731189746667
10
616.76765035594235
20
133.54662907255823
10
617.47283629963147
20
133.54662907255823
42
0.41421356237309503
10
618.27283629963176
20
134.34662907255822
10
618.27283629963188
20
136.54662911726172
42
-0.99999999999999989
10
619.8728362996319
20
136.54662911726172
10
622.39783629963188
20
136.54662911726172
42
-0.99999999999999989
10
623.99783629963179
20
136.54662911726172
10
623.9978362996319
20
134.34662907255822
42
0.41421356237309503
10
624.79783629963185
20
133.54662907255823
10
628.0578362996315
20
133.54662907255823
42
0.41421356237309503
10
628.85783629963169
20
134.34662907255822
10
628.85783629963225
20
136.54662911726172
42
-0.99999999999999989
10
630.45783629963171
20
136.54662911726172
10
633.47283653805016
20
136.54662911726172
42
0.41421356237309503
10
634.27283653805023
20
137.3466291172617
10
634.27283653805057
20
141.36927346165311
42
-0.10951781168325864
10
634.34779030842128
20
141.70736807104572
10
637.90132448228042
20
149.32794669915472
42
-0.24355734013825436
10
638.48405967905694
20
149.77709256758854
10
647.61514733248441
20
151.42773751234188
42
0.36275112710795177
10
648.27283629963176
20
152.21497799016831
10
648.27283629963176
20
156.54662911726172
10
648.27283629963176
20
157.74662944508731
42
0.41421356237309503
10
647.47283629963181
20
158.54662944508732
10
643.21283629963182
20
158.54662944508732
42
0.41421356237309503
10
642.41283629963164
20
157.74662944508731
10
642.41283629963152
20
156.54662911726172
42
-0.99999999999999989
10
640.81283629963184
20
156.54662911726172
10
638.50243629963165
20
156.54662911726172
42
-0.99999999999999989
0
LWPOLYLINE
5
101
100
AcDbEntity
8
0
100
AcDbPolyline
90
6
70
1
43
0.0
10
630.75489857849561
20
152.9932228067151
10
635.26980345706625
20
153.80558241441452
42
-0.6080095301944316
10
636.1365174789513
20
152.68013131864652
10
635.01897571544919
20
150.28355527285728
42
-0.414213562373066
10
633.95583487642716
20
149.89660365262068
10
630.55847176135876
20
151.48082009071035
42
-0.73188936151128092
0
LINE
5
102
100
AcDbEntity
8
0
100
AcDbLine
10
640.81283629963184
20
156.54662911726172
30
0
11
638.50243629963177
21
156.54662911726172
31
0
0
LINE
5
103
100
AcDbEntity
8
0
100
AcDbLine
10
642.41283629963164
20
156.54662911726172
30
0
11
642.41283629963164
21
157.24662911726182
31
0
0
LWPOLYLINE
5
104
100
AcDbEntity
8
0
100
AcDbPolyline
90
6
70
1
43
0.0
10
627.31950808006843
20
144.5348400609036
42
0.73188936151140571
10
626.28720110798065
20
143.41221466245227
10
628.56702245954682
20
139.43142217857337
42
0.60800953019438786
10
629.98628105187129
20
139.49090673800282
10
631.10382281537363
20
141.8874827837918
42
0.41421356237307189
10
630.71687119513695
20
142.95062362281368
0
LINE
5
105
100
AcDbEntity
8
0
100
AcDbLine
10
636.39318924351028
20
161.74529623984469
30
0
11
627.28935304451068
21
165.87928599915782
31
0
0
LINE
5
106
100
AcDbEntity
8
0
100
AcDbLine
10
622.39783629963188
20
136.54662911726172
30
0
11
619.8728362996319
21
136.54662911726172
31
0
0
CIRCLE
5
107
100
AcDbEntity
8
0
100
AcDbCircle
10
620.02030144458581
20
166.5105957594364
30
0
40
1.0500000000000349
210
0
220
0
230
1
0
CIRCLE
5
108
100
AcDbEntity
8
0
100
AcDbCircle
10
609.03222664641794
20
142.94659329317727
30
0
40
1.0500000000000214
210
0
220
0
230
1
0
LWPOLYLINE
5
109
100
AcDbEntity
8
0
100
AcDbPolyline
90
4
70
1
43
0.0
10
620.40785994522264
20
153.14450812911653
42
0.99999999999999989
10
619.52036159586476
20
151.24126177620076
10
629.03659334740985
20
146.80377003549967
42
0.99999999999999989
10
629.9240916967658
20
148.70701638841629
0
LWPOLYLINE
5
110
100
AcDbEntity
8
0
100
AcDbPolyline
90
4
70
1
43
0.0
10
625.14826771349158
20
159.76104303758331
42
0.99999999999999989
10
624.26076936383083
20
157.85779668480879
10
630.60492386599412
20
154.89946885593156
42
0.99999999999999989
10
631.49242221565021
20
156.80271520870826
0
LWPOLYLINE
5
111
100
AcDbEntity
8
0
100
AcDbPolyline
90
4
70
1
43
0.0
10
618.38637552563455
20
145.2601184449997
42
0.99999999999999989
10
617.49887717597619
20
143.35687209222405
10
623.84303168523491
20
140.39854426003814
42
0.99999999999999989
10
624.73053003489019
20
142.30179061281515
0
LINE
5
112
100
AcDbEntity
8
0
100
AcDbLine
10
580.39318924351028
20
161.74529623984469
30
0
11
571.28935304451068
21
165.87928599915782
31
0
0
LWPOLYLINE
5
113
100
AcDbEntity
8
0
100
AcDbPolyline
90
4
70
1
43
0.0
10
569.14826771349158
20
159.76104303758331
10
575.49242221565373
20
156.80271520870662
42
-0.99999999999999989
10
574.60492386599401
20
154.89946885593156
10
568.26076936382299
20
157.85779668481243
42
-0.99999999999999989
0
LWPOLYLINE
5
114
100
AcDbEntity
8
0
100
AcDbPolyline
90
4
70
1
43
0.0
10
563.52036159586476
20
151.24126177620076
10
573.03659334740985
20
146.80377003549967
42
0.99999999999999989
10
573.9240916967658
20
148.70701638841629
10
564.40785994522253
20
153.14450812911653
42
0.99999999999999989
0
LWPOLYLINE
5
115
100
AcDbEntity
8
0
100
AcDbPolyline
90
48
70
1
43
0.0
10
563.8728362996319
20
136.54662911726172
42
0.99999999999999989
10
562.27283629963176
20
136.54662911726172
10
562.27283629963142
20
134.34662907255822
42
-0.41421356237309503
10
561.47283629963147
20
133.54662907255823
10
560.76765035594224
20
133.54662907255806
42
-0.13937311897466673
10
560.34682739535549
20
133.66625561934066
10
551.44064861144511
20
141.01867228916586
42
-0.55504238629700786
10
552.00223191704072
20
145.22455529825362
10
555.71393895325241
20
146.90282678643248
42
0.17934105701317601
10
556.70255874681561
20
147.87995986219067
10
557.50404943108811
20
149.5987621835153
42
0.19891236725344597
10
557.53743426463211
20
150.36340058814173
10
556.8727932074454
20
152.18948688480484
10
558.14064799134758
20
154.90841024653028
10
559.40850277524976
20
157.62733360825573
10
561.23458906922747
20
158.29197466446507
42
0.19891236750584995
10
561.79887671314373
20
158.80904902395028
10
562.60036739854365
20
160.52785134769329
42
0.17934105703409647
10
562.71342220603378
20
161.91326708128798
10
561.61321345723513
20
165.83537174291359
42
-0.63908138697723893
10
565.06330218654898
20
168.78263218159213
10
580.39318924351028
20
161.74529623984472
42
-0.30901779218167647
10
580.90243629963186
20
161.00000252215602
10
580.90243629963186
20
156.54662911726172
42
0.99999999999999989
10
582.50243629963177
20
156.54662911726172
10
584.81283629963184
20
156.54662911726172
42
0.99999999999999989
10
586.41283629963164
20
156.54662911726172
10
586.41283629963175
20
157.74662944508731
42
-0.41421356237309503
10
587.2128362996317
20
158.54662944508732
10
591.47283629963181
20
158.54662944508729
42
-0.41421356237309503
10
592.27283629963176
20
157.74662944508731
10
592.27283629963176
20
156.54662911726172
10
592.27283629963176
20
152.21497799016831
42
-0.36275112710795177
10
591.61514733248441
20
151.42773751234188
10
582.48405967905694
20
149.77709256758854
42
0.24355734013825431
10
581.9013244822803
20
149.32794669915472
10
578.34779030842117
20
141.70736807104572
42
0.10951781168325862
10
578.27283653805023
20
141.36927346165311
10
578.27283653805023
20
137.3466291172617
42
-0.41421356237309503
10
577.47283653805016
20
136.54662911726172
10
574.45783629963171
20
136.54662911726172
42
0.99999999999999989
10
572.85783629963169
20
136.54662911726172
10
572.85783629963146
20
134.34662907255822
42
-0.41421356237309503
10
572.0578362996315
20
133.54662907255823
10
568.79783629963185
20
133.54662907255823
42
-0.41421356237309503
10
567.9978362996319
20
134.34662907255822
10
567.99783629963179
20
136.54662911726172
42
0.99999999999999989
10
566.39783629963188
20
136.54662911726172
0
LWPOLYLINE
5
116
100
AcDbEntity
8
0
100
AcDbPolyline
90
6
70
1
43
0.0
10
579.01897571544885
20
150.2835552728574
10
580.13651747895119
20
152.68013131864652
42
0.6080095301944316
10
579.26980345706625
20
153.80558241441449
10
574.75489857849561
20
152.9932228067151
42
0.73188936151128092
10
574.55847176135876
20
151.48082009071041
10
577.95583487642716
20
149.89660365262068
42
0.414213562373066
0
LWPOLYLINE
5
117
100
AcDbEntity
8
0
100
AcDbPolyline
90
4
70
1
43
0.0
10
561.49887717597619
20
143.35687209222405
10
567.84303168523491
20
140.39854426003814
42
0.99999999999999989
10
568.73053003489019
20
142.30179061281515
10
562.38637552563455
20
145.2601184449997
42
0.99999999999999989
0
LWPOLYLINE
5
118
100
AcDbEntity
8
0
100
AcDbPolyline
90
6
70
1
43
0.0
10
575.10382281537363
20
141.8874827837918
42
0.41421356237307189
10
574.71687119513695
20
142.95062362281368
10
571.31950808006843
20
144.5348400609036
42
0.73188936151140571
10
570.28720110798065
20
143.41221466245227
10
572.56702245954682
20
139.43142217857337
42
0.60800953019438786
10
573.98628105187129
20
139.49090673800282
0
CIRCLE
5
119
100
AcDbEntity
8
0
100
AcDbCircle
10
553.03222664641794
20
142.94659329317727
30
0
40
1.0500000000000214
210
0
220
0
230
1
0
LINE
5
120
100
AcDbEntity
8
0
100
AcDbLine
10
582.50243629963177
20
156.54662911726172
30
0
11
584.81283629963184
21
156.54662911726172
31
0
0
CIRCLE
5
121
100
AcDbEntity
8
0
100
AcDbCircle
10
564.02030144458581
20
166.5105957594364
30
0
40
1.0500000000000349
210
0
220
0
230
1
0
LINE
5
122
100
AcDbEntity
8
0
100
AcDbLine
10
586.41283629963164
20
156.54662911726172
30
0
11
586.41283629963164
21
157.24662911726182
31
0
0
LINE
5
123
100
AcDbEntity
8
0
100
AcDbLine
10
566.39783629963188
20
136.54662911726172
30
0
11
563.8728362996319
21
136.54662911726172
31
0
0
ENDSEC
0
SECTION
2
OBJECTS
0
DICTIONARY
5
C
100
AcDbDictionary
3
ACAD_GROUP
350
D
3
ACAD_MLINESTYLE
350
17
0
DICTIONARY
5
D
100
AcDbDictionary
0
DICTIONARY
5
1A
330
C
100
AcDbDictionary
0
DICTIONARY
5
17
100
AcDbDictionary
0
ENDSEC
0
EOF
